# AST/ASF file generated using VICON BodyLanguage
# -----------------------------------------------
:version 1.10
:name VICON
:units
  mass 1.0
  length 0.45
  angle deg
:documentation
   .ast/.asf automatically generated from VICON data using
   VICON BodyBuilder and BodyLanguage model FoxedUp or BRILLIANT.MOD
:root
   order TX TY TZ RX RY RZ
   axis XYZ
   position 0 0 0  
   orientation 0 0 0 
:bonedata
  begin
     id 1 
     name lhipjoint
     direction 0.64773 -0.699417 0.302095 
     length 2.48597 
     axis 0 0 0  XYZ
  end
  begin
     id 2 
     name lfemur
     direction 0.34202 -0.939693 0  
     length 6.71947  
     axis 0 0 20  XYZ
    dof rx ry rz
    limits (-160.0 20.0)
           (-70.0 70.0)
           (-60.0 70.0)
  end
  begin
     id 3 
     name ltibia
     direction 0.34202 -0.939693 0   
     length 8.08777   
     axis 0 0 20   XYZ
    dof rx
    limits (-10.0 170.0)
  end
  begin
     id 4 
     name lfoot
     direction 0.0808503 -0.222134 0.971658   
     length 2.08264   
     axis -90 7.62852e-016 20   XYZ
    dof rx rz
    limits (-45.0 90.0)
           (-70.0 20.0)
  end
  begin
     id 5 
     name ltoes
     direction 1.53502e-011 -4.22007e-011 1   
     length 1.04662   
     axis -90 7.62852e-016 20   XYZ
    dof rx
    limits (-90.0 20.0)
  end
  begin
     id 6 
     name rhipjoint
     direction -0.610924 -0.726792 0.313919   
     length 2.39233  
     axis 0 0 0  XYZ 
  end
  begin
     id 7 
     name rfemur
     direction -0.34202 -0.939693 0   
     length 6.96955   
     axis 0 0 -20   XYZ
    dof rx ry rz
    limits (-160.0 20.0)
           (-70.0 70.0)
           (-70.0 60.0)
  end
  begin
     id 8 
     name rtibia
     direction -0.34202 -0.939693 0   
     length 8.19584   
     axis 0 0 -20   XYZ
    dof rx
    limits (-10.0 170.0)
 end
 begin
     id 9 
     name rfoot
     direction -0.077777 -0.213691 0.9738   
     length 2.07539  
     axis -90 -7.62852e-016 -20   XYZ
    dof rx rz
    limits (-45.0 90.0)
           (-20.0 70.0)
  end
  begin
     id 10 
     name rtoes
     direction -1.53558e-011 -4.22006e-011 1   
     length 1.04381   
     axis -90 -7.62852e-016 -20   XYZ
    dof rx
    limits (-90.0 20.0)
  end
  begin
     id 11 
     name lowerback
     direction -0.00971646 0.996074 0.0879841   
     length 1.67643   
     axis 0 0 0   XYZ
    dof rx ry rz
    limits (-20.0 45.0)
           (-30.0 30.0)
           (-30.0 30.0)
  end
  begin
     id 12 
     name upperback
     direction 0.0127391 0.991676 0.128127   
     length 1.63741   
     axis 0 0 0   XYZ
    dof rx ry rz
    limits (-20.0 45.0)
           (-30.0 30.0)
           (-30.0 30.0)
  end
  begin
     id 13 
     name thorax
     direction 0.0167583 0.996049 0.0872067   
     length 1.65931   
     axis 0 0 0   XYZ
    dof rx ry rz
    limits (-20.0 45.0)
           (-30.0 30.0)
           (-30.0 30.0)
  end
  begin
     id 14 
     name lowerneck
     direction -0.0317829 0.998312 0.0486079   
     length 1.79021   
     axis 0 0 0   XYZ
    dof rx ry rz
    limits (-20.0 45.0)
           (-30.0 30.0)
           (-30.0 30.0)
  end
  begin
     id 15 
     name upperneck
     direction 0.0896851 0.972452 -0.215159   
     length 1.78797   
     axis 0 0 0   XYZ
    dof rx ry rz
    limits (-20.0 45.0)
           (-30.0 30.0)
           (-30.0 30.0)
  end
  begin
     id 16
     name head
     direction 0.0310949 0.996503 -0.0775582  
     length 1.81549  
     axis 0 0 0   XYZ
    dof rx ry rz
    limits (-20.0 45.0)
           (-30.0 30.0)
           (-30.0 30.0)
  end
  begin
     id 17 
     name lclavicle
     direction 0.853638 0.502051 -0.138733  
     length 3.31627  
     axis 0 0 0   XYZ
    dof ry rz
    limits (-20.0 10.0)
           (0.0 20.0)
  end
  begin
     id 18 
     name lhumerus
     direction 1 -4.48962e-011 -1.41788e-018   
     length 5.54893   
     axis 180 -30 -90   XYZ
    dof rx ry rz
    limits (-60.0 90.0)
           (-90.0 90.0)
           (-90.0 90.0)
  end
  begin
     id 19
     name lradius
     direction 1 -4.48962e-011 -4.95754e-027   
     length 3.02898   
     axis 180 -30 -90   XYZ
    dof rx
    limits (-10.0 170.0)
  end
  begin
     id 20
     name lwrist
     direction 1 -4.48952e-011 -1.03764e-026   
     length 1.51449   
     axis 9.09556e-015 90 90   XYZ
    dof ry
    limits (-180.0 0.0)
 end
  begin
     id 21 
     name lhand
     direction 1 -4.4902e-011 -2.07528e-026   
     length 0.640951   
     axis 1.3242e-014 90 90   XYZ
    dof rx rz
    limits (-90.0 90.0)
           (-45.0 45.0)
  end
  begin
     id 22 
     name lfingers
     direction 1 -4.49014e-011 -4.15056e-026   
     length 0.516751   
     axis 2.64841e-014 90 90   XYZ
    dof rx
    limits (0.0 90.0)
  end
  begin
     id 23
     name lthumb
     direction 0.707107 -6.35008e-011 0.707107   
     length 0.741954   
     axis -90 45 2.85299e-015   XYZ
    dof rx rz
    limits (-45.0 45.0)
           (-45.0 45.0)
  end
  begin
     id 24 
     name rclavicle
     direction -0.888531 0.455324 -0.0565039   
     length 3.20126  
     axis 0 0 0   XYZ 
    dof ry rz
    limits (-10.0 20.0)
           (-20.0 0.0)
  end
  begin
     id 25 
     name rhumerus
     direction -1 -4.48946e-011 -8.98298e-028  
     length 5.3519   
     axis 180 30 90   XYZ
    dof rx ry rz
    limits (-90.0 60.0)
           (-90.0 90.0)
           (-90.0 90.0)
  end
  begin
     id 26 
     name rradius
     direction -1 -4.4899e-011 -3.18779e-027   
     length 3.02531   
     axis 180 30 90   XYZ
    dof rx
    limits (-10.0 170.0)
  end
  begin
     id 27 
     name rwrist
     direction -1 -4.4897e-011 -1.03764e-026   
     length 1.51266   
     axis 9.09556e-015 -90 -90   XYZ
    dof ry
    limits (-180.0 0.0)
  end
  begin
     id 28
     name rhand
     direction -1 -4.48941e-011 -2.07528e-026   
     length 0.78389   
     axis 1.3242e-014 -90 -90   XYZ
    dof rx rz
    limits (-90.0 90.0)
           (-45.0 45.0)
  end
  begin
     id 29
     name rfingers
     direction -1 -4.49012e-011 -4.15056e-026   
     length 0.631992   
     axis 2.64841e-014 -90 -90   XYZ
    dof rx
    limits (0.0 90.0)
  end
  begin
     id 30
     name rthumb
     direction -0.707107 -6.3496e-011 0.707107   
     length 0.907418   
     axis -90 -45 -2.85299e-015   XYZ
    dof rx rz
    limits (-45.0 45.0)
           (-45.0 45.0)
  end
:hierarchy
  begin
    root lhipjoint rhipjoint lowerback
    lhipjoint lfemur
    lfemur ltibia
    ltibia lfoot
    lfoot ltoes
    rhipjoint rfemur
    rfemur rtibia
    rtibia rfoot
    rfoot rtoes
    lowerback upperback
    upperback thorax
    thorax lowerneck lclavicle rclavicle
    lowerneck upperneck
    upperneck head
    lclavicle lhumerus
    lhumerus lradius
    lradius lwrist
    lwrist lhand lthumb
    lhand lfingers
    rclavicle rhumerus
    rhumerus rradius
    rradius rwrist
    rwrist rhand rthumb
    rhand rfingers
  end

#!OML:ASF E:\Style3\Style3.ASF
:FULLY-SPECIFIED
:DEGREES
2169
root -0.177204 17.8717 0.762624 -127.881 86.5272 -140.47
lowerback -3.17067 2.55404 1.40109
upperback -1.3546 3.44499 -3.64977
thorax 0.691133 1.74129 -4.41006
lowerneck -3.11994 12.7016 6.13604
upperneck 38.5523 19.7556 4.68493
head 13.7877 10.7825 3.38827
rclavicle -1.61016e-014 -4.77083e-015
rhumerus 29.8403 22.6494 -54.866
rradius 131.014
rwrist 22.2566
rhand -28.8625 21.1354
rfingers 7.12502
rthumb -2.2189 -8.83278
lclavicle -1.61016e-014 -4.77083e-015
lhumerus -16.2258 -37.2042 92.1097
lradius 134.351
lwrist 33.3558
lhand -33.8972 4.56885
lfingers 7.12502
lthumb -7.08031 34.4304
rfemur -10.4842 12.8294 16.1152
rtibia 7.92059
rfoot -8.24063 -21.1608
rtoes -22.7599
lfemur 0 0 0
ltibia 0
lfoot 0 0
ltoes 0
2170
root -0.176331 17.8705 0.761871 -128.305 86.457 -140.88
lowerback -3.22453 2.4629 1.34791
upperback -1.39201 3.32589 -3.66921
thorax 0.670495 1.68149 -4.40433
lowerneck -3.37261 12.0435 5.60696
upperneck 39.5317 18.9126 5.06705
head 14.1658 10.4115 3.61394
rclavicle 1.19271e-015 9.54166e-015
rhumerus 29.5385 22.5684 -55.3775
rradius 131.025
rwrist 20.8613
rhand -27.9555 20.5881
rfingers 7.12502
rthumb -1.34291 -9.38743
lclavicle 1.19271e-015 9.54166e-015
lhumerus -16.1679 -36.95 91.9536
lradius 134.235
lwrist 33.3992
lhand -33.8953 4.47438
lfingers 7.12502
lthumb -7.07847 34.336
rfemur -10.4304 12.7683 16.1577
rtibia 7.88324
rfoot -8.29286 -21.137
rtoes -22.6865
lfemur 0 0 0
ltibia 0
lfoot 0 0
ltoes 0
2171
root -0.174763 17.8702 0.762433 -129.297 86.4267 -141.881
lowerback -3.34908 2.32785 1.14655
upperback -1.42421 3.15251 -3.64254
thorax 0.679774 1.59503 -4.26634
lowerneck -3.46594 11.38 5.17122
upperneck 40.5458 18.1998 5.12944
head 14.6056 10.0716 3.72389
rclavicle -4.07509e-014 1.90833e-014
rhumerus 29.3533 22.4994 -55.7804
rradius 131.021
rwrist 19.3082
rhand -26.9666 20.1435
rfingers 7.12502
rthumb -0.387831 -9.83592
lclavicle -4.07509e-014 1.90833e-014
lhumerus -16.1165 -36.5387 91.7968
lradius 134.123
lwrist 33.4766
lhand -33.8458 4.42115
lfingers 7.12502
lthumb -7.03071 34.2844
rfemur -10.4158 12.7013 16.1396
rtibia 7.86899
rfoot -8.28033 -21.1342
rtoes -22.9522
lfemur 0 0 0
ltibia 0
lfoot 0 0
ltoes 0
2172
root -0.172661 17.8707 0.765303 -130.063 86.3611 -142.637
lowerback -3.45342 2.26997 1.02294
upperback -1.52319 3.08206 -3.70899
thorax 0.62768 1.55976 -4.26705
lowerneck -3.5146 10.5915 4.87126
upperneck 41.7062 17.3088 5.26277
head 15.1391 9.69113 3.839
rclavicle 2.52457e-014 1.43125e-014
rhumerus 28.7469 22.2987 -56.3872
rradius 131.15
rwrist 17.4831
rhand -25.684 19.7714
rfingers 7.12502
rthumb 0.850942 -10.2066
lclavicle 2.52457e-014 1.43125e-014
lhumerus -16.2785 -36.4183 91.7095
lradius 134.11
lwrist 33.5928
lhand -33.7923 4.35602
lfingers 7.12502
lthumb -6.97903 34.221
rfemur -10.3703 12.6282 16.1816
rtibia 7.85171
rfoot -8.25557 -21.1623
rtoes -23.0397
lfemur 0 0 0
ltibia 0
lfoot 0 0
ltoes 0
2173
root -0.16921 17.8709 0.767898 -130.448 86.3144 -143.007
lowerback -3.53724 2.44718 1.17056
upperback -1.71035 3.32385 -4.04347
thorax 0.529639 1.68161 -4.6885
lowerneck -3.48173 9.51989 4.72643
upperneck 42.8049 15.8929 5.59001
head 15.6481 9.15526 3.93603
rclavicle 1.37161e-014 0
rhumerus 27.405 21.6061 -57.3446
rradius 131.445
rwrist 15.1567
rhand -24.1208 19.7675
rfingers 7.12502
rthumb 2.36066 -10.1991
lclavicle 1.37161e-014 0
lhumerus -16.6411 -37.0573 91.7509
lradius 134.046
lwrist 33.606
lhand -33.7667 4.36728
lfingers 7.12502
lthumb -6.95432 34.233
rfemur -10.3084 12.5857 16.2256
rtibia 7.81891
rfoot -8.27258 -21.1542
rtoes -22.9225
lfemur 0 0 0
ltibia 0
lfoot 0 0
ltoes 0
2174
root -0.165285 17.8702 0.770656 -131.312 86.2376 -143.845
lowerback -3.61386 2.50342 1.15166
upperback -1.76682 3.40639 -4.22015
thorax 0.531297 1.7249 -4.85617
lowerneck -3.54604 8.5638 4.37994
upperneck 43.764 14.7027 5.69338
head 16.1376 8.64649 3.99915
rclavicle 4.87022e-014 -1.90833e-014
rhumerus 26.6138 20.5352 -58.2516
rradius 131.989
rwrist 10.8215
rhand -20.0966 20.6498
rfingers 7.12502
rthumb 6.24657 -9.23814
lclavicle 4.87022e-014 -1.90833e-014
lhumerus -16.7581 -37.3849 91.8402
lradius 133.925
lwrist 33.4347
lhand -33.737 4.50853
lfingers 7.12502
lthumb -6.92572 34.3752
rfemur -10.1993 12.5006 16.2731
rtibia 7.76696
rfoot -8.53846 -21.1009
rtoes -21.8753
lfemur 0 0 0
ltibia 0
lfoot 0 0
ltoes 0
2175
root -0.162729 17.8695 0.772988 -132.328 86.1 -144.842
lowerback -3.7421 2.14981 0.649422
upperback -1.5835 2.94815 -3.95257
thorax 0.710221 1.49793 -4.30553
lowerneck -4.18122 7.98957 3.68678
upperneck 44.9474 14.3054 5.35503
head 16.9244 8.30826 4.11243
rclavicle 0 2.70347e-014
rhumerus 27.1048 20.4252 -58.4503
rradius 132.085
rwrist 8.25967
rhand -17.8547 20.556
rfingers 7.12502
rthumb 8.41058 -9.25652
lclavicle 0 2.70347e-014
lhumerus -16.2748 -36.5259 91.6702
lradius 133.794
lwrist 33.1931
lhand -33.7365 4.6309
lfingers 7.12502
lthumb -6.92523 34.4976
rfemur -10.1179 12.3662 16.3614
rtibia 7.74058
rfoot -8.77537 -21.0956
rtoes -20.6331
lfemur 0 0 0
ltibia 0
lfoot 0 0
ltoes 0
2176
root -0.160315 17.8686 0.774633 -133.375 86.0014 -145.832
lowerback -4.03703 2.1187 0.178934
upperback -2.12471 2.92342 -3.92699
thorax 0.292032 1.48288 -4.01646
lowerneck -2.31246 6.84109 4.13783
upperneck 45.9 13.292 4.61014
head 17.1943 7.98716 3.55762
rclavicle -6.95746e-015 4.77083e-015
rhumerus 25.3515 20.6119 -59.2193
rradius 132.379
rwrist 6.4039
rhand -16.4091 19.786
rfingers 7.12502
rthumb 9.80551 -9.96574
lclavicle -6.95746e-015 4.77083e-015
lhumerus -17.8587 -36.5963 92.6939
lradius 133.814
lwrist 32.9802
lhand -33.8867 4.83154
lfingers 7.12502
lthumb -7.07016 34.6935
rfemur -10.0248 12.2567 16.4155
rtibia 7.73888
rfoot -8.50496 -21.1671
rtoes -21.7218
lfemur 0 0 0
ltibia 0
lfoot 0 0
ltoes 0
2177
root -0.154926 17.869 0.774777 -134.923 85.9856 -147.315
lowerback -4.01551 1.98027 -0.0655974
upperback -1.9315 2.75168 -3.95097
thorax 0.456383 1.4004 -3.90779
lowerneck -4.08058 6.19748 2.75512
upperneck 48.105 12.7091 5.38822
head 18.8012 7.5603 4.47707
rclavicle 5.56597e-015 1.27222e-014
rhumerus 25.4056 20.1663 -59.4248
rradius 132.494
rwrist 4.2541
rhand -15.1023 19.1805
rfingers 7.12502
rthumb 11.0661 -10.5078
lclavicle 5.56597e-015 1.27222e-014
lhumerus -16.8272 -36.2888 92.0855
lradius 133.475
lwrist 32.9898
lhand -33.911 4.75021
lfingers 7.12502
lthumb -7.09369 34.6113
rfemur -9.92553 12.1756 16.3627
rtibia 7.75664
rfoot -8.32714 -21.1802
rtoes -22.7543
lfemur 0 0 0
ltibia 0
lfoot 0 0
ltoes 0
2178
root -0.151458 17.8684 0.775133 -136.516 85.9433 -148.871
lowerback -4.00424 1.85475 -0.370083
upperback -1.93923 2.59747 -3.97906
thorax 0.419747 1.3253 -3.77328
lowerneck -3.92866 5.40291 2.17713
upperneck 48.7998 11.9122 5.11702
head 19.2375 7.11783 4.41982
rclavicle 4.37326e-015 -1.27222e-014
rhumerus 25.0221 19.8265 -59.8122
rradius 132.577
rwrist 2.03034
rhand -13.7986 18.81
rfingers 7.12502
rthumb 12.3233 -10.8069
lclavicle 4.37326e-015 -1.27222e-014
lhumerus -15.9461 -35.8871 91.532
lradius 132.974
lwrist 33.2197
lhand -33.9307 4.84623
lfingers 7.12502
lthumb -7.11267 34.7067
rfemur -9.87677 12.0714 16.3161
rtibia 7.82845
rfoot -8.52586 -21.1461
rtoes -22.5681
lfemur 0 0 0
ltibia 0
lfoot 0 0
ltoes 0
2179
root -0.151413 17.8685 0.776113 -137.266 85.8549 -149.589
lowerback -4.00961 1.75774 -0.63601
upperback -2.01574 2.47804 -3.98237
thorax 0.325651 1.26707 -3.63398
lowerneck -4.13867 4.58835 1.31021
upperneck 50.0643 11.1687 5.22722
head 20.1414 6.67679 4.71666
rclavicle 1.15295e-014 1.59028e-015
rhumerus 24.4901 19.5497 -60.1921
rradius 132.613
rwrist -0.0653319
rhand -12.3227 18.3353
rfingers 7.12502
rthumb 13.746 -11.1906
lclavicle 1.15295e-014 1.59028e-015
lhumerus -15.5963 -35.6065 91.3749
lradius 132.7
lwrist 33.2887
lhand -33.8843 4.90606
lfingers 7.12502
lthumb -7.06787 34.7681
rfemur -9.84127 11.977 16.3572
rtibia 7.87999
rfoot -8.56259 -21.1428
rtoes -22.4749
lfemur 0 0 0
ltibia 0
lfoot 0 0
ltoes 0
2180
root -0.151359 17.8683 0.776752 -138.399 85.8134 -150.689
lowerback -4.03057 1.65146 -0.893472
upperback -2.03786 2.3483 -4.00844
thorax 0.297923 1.20443 -3.52176
lowerneck -4.1737 3.84453 0.753988
upperneck 51.0155 10.6021 4.88268
head 20.9121 6.30148 4.71358
rclavicle -5.96354e-015 1.59028e-015
rhumerus 24.0063 19.3637 -60.462
rradius 132.655
rwrist -1.9769
rhand -11.015 17.6209
rfingers 7.12502
rthumb 15.006 -11.8154
lclavicle -5.96354e-015 1.59028e-015
lhumerus -15.5838 -35.3443 91.4362
lradius 132.612
lwrist 33.1632
lhand -33.7261 4.7802
lfingers 7.12502
lthumb -6.91521 34.6473
rfemur -9.75577 11.8974 16.3417
rtibia 7.83921
rfoot -8.55819 -21.1325
rtoes -22.3684
lfemur 0 0 0
ltibia 0
lfoot 0 0
ltoes 0
2181
root -0.152073 17.8681 0.777342 -138.633 85.6701 -150.854
lowerback -3.99198 1.51714 -0.9807
upperback -1.90538 2.17499 -4.02618
thorax 0.400499 1.11862 -3.49745
lowerneck -5.12184 3.12297 0.257813
upperneck 52.1394 10.0826 4.55236
head 22.2402 5.8953 4.83511
rclavicle 9.93923e-015 -3.33958e-014
rhumerus 23.8559 18.9764 -60.6722
rradius 132.947
rwrist -4.5085
rhand -9.10445 16.4265
rfingers 7.12502
rthumb 16.8459 -12.8628
lclavicle 9.93923e-015 -3.33958e-014
lhumerus -15.2286 -35.0991 91.2544
lradius 132.464
lwrist 32.9292
lhand -33.6727 4.63942
lfingers 7.12502
lthumb -6.86364 34.5082
rfemur -9.58375 11.7904 16.4596
rtibia 7.72313
rfoot -8.80819 -21.1137
rtoes -21.3208
lfemur 0 0 0
ltibia 0
lfoot 0 0
ltoes 0
2182
root -0.151168 17.8674 0.778313 -138.107 85.5026 -150.248
lowerback -3.96632 1.37739 -1.01251
upperback -1.72205 1.99373 -4.03687
thorax 0.564116 1.02846 -3.4964
lowerneck -5.8093 2.4606 -0.593004
upperneck 53.0584 9.58232 4.52348
head 23.3926 5.46243 5.13974
rclavicle -1.23246e-014 2.54444e-014
rhumerus 23.891 18.3346 -60.9209
rradius 133.504
rwrist -7.74215
rhand -6.39411 14.5884
rfingers 7.12502
rthumb 19.4535 -14.4584
lclavicle -1.23246e-014 2.54444e-014
lhumerus -14.7435 -34.9607 90.9924
lradius 132.324
lwrist 32.4708
lhand -33.7889 4.76008
lfingers 7.12502
lthumb -6.97578 34.6251
rfemur -9.39568 11.7058 16.6446
rtibia 7.59213
rfoot -9.27616 -21.0191
rtoes -19.2483
lfemur 0 0 0
ltibia 0
lfoot 0 0
ltoes 0
2183
root -0.149821 17.8665 0.778157 -137.645 85.3614 -149.696
lowerback -3.95728 1.25855 -1.11787
upperback -1.58772 1.8431 -4.04394
thorax 0.685995 0.953925 -3.44949
lowerneck -5.92226 1.83115 -1.17598
upperneck 53.5766 9.04531 4.24585
head 24.0485 5.07639 5.12384
rclavicle 3.12092e-014 -2.06736e-014
rhumerus 23.7061 17.6615 -61.1784
rradius 133.854
rwrist -10.6232
rhand -3.90681 13.0678
rfingers 7.12502
rthumb 21.8434 -15.7193
lclavicle 3.12092e-014 -2.06736e-014
lhumerus -14.3631 -34.8565 90.7427
lradius 132.212
lwrist 32.08
lhand -33.8429 4.94512
lfingers 7.12502
lthumb -7.02789 34.8084
rfemur -9.18494 11.6394 16.8058
rtibia 7.42874
rfoot -9.18576 -21.0083
rtoes -19.4504
lfemur 0 0 0
ltibia 0
lfoot 0 0
ltoes 0
